<svg width="62" height="62" viewBox="0 0 62 62" xmlns="http://www.w3.org/2000/svg">
    <path d="M26.9158 16.7684C26.7222 17.2203 26.5286 17.6077 26.3351 17.9951C26.0124 18.5762 25.5608 19.0281 25.0445 19.4801C24.6574 19.8029 24.2057 20.1257 23.6895 20.384C23.1733 20.6422 22.5925 20.8359 22.0118 20.9005C21.6892 20.9651 21.302 20.9651 20.9794 20.9651H20.9148C20.0115 26.001 20.0115 31.037 20.7213 36.073C20.7858 36.073 20.7858 36.073 20.8503 36.073C21.4956 36.2021 22.1408 36.3958 22.7216 36.6541C28.529 32.1992 34.9171 29.1001 42.0795 27.486C42.0795 27.3569 42.0795 27.2277 42.0795 27.0986C42.0795 26.7112 42.1441 26.3884 42.2731 26.001C42.4022 25.4845 42.5957 24.968 42.8538 24.5161C42.8538 24.5161 42.8538 24.5161 42.8538 24.4515C40.4018 21.9335 31.5617 17.6077 26.8513 16.5747C26.9803 16.6393 26.9803 16.7038 26.9158 16.7684Z" />
    <path d="M30.9823 0.0461426C13.9473 0.0461426 0.138672 13.8628 0.138672 30.9077C0.138672 47.9525 13.9473 61.7692 30.9823 61.7692C48.0173 61.7692 61.826 47.9525 61.826 30.9077C61.826 13.8628 48.0173 0.0461426 30.9823 0.0461426ZM54.5345 29.8101C54.3409 30.1975 54.2119 30.5849 53.9538 31.0368C53.6311 31.6179 53.1795 32.0698 52.6632 32.5218C52.2761 32.8446 51.8244 33.1674 51.3082 33.4257C50.0177 34.0067 48.7271 34.2004 47.3721 33.9422H47.3075C46.5977 33.7485 45.9525 33.4902 45.3072 33.1029C45.1782 33.0383 45.0491 32.9092 44.8555 32.8446C44.791 32.8446 44.791 32.78 44.7265 32.78C44.1457 32.3927 43.6941 31.8761 43.2424 31.2951C43.2424 31.2951 43.2424 31.2951 43.2424 31.2305C43.1133 31.0368 42.9843 30.8431 42.8552 30.6494C36.4026 32.1344 30.5952 34.9106 25.304 38.849C25.4331 39.0427 25.4976 39.2364 25.6266 39.3656C25.8847 39.8821 26.1428 40.4631 26.2074 41.0442C26.2719 41.4962 26.3364 41.9481 26.3364 42.4001C26.3364 43.1748 26.2074 43.885 25.9493 44.5952C25.5621 45.6928 24.9168 46.5967 24.0135 47.3069C23.1746 48.0171 22.0777 48.5336 20.9162 48.7273C20.5936 48.7919 20.2064 48.7919 19.8193 48.7919C18.6578 48.7919 17.5608 48.4691 16.5929 47.9525C16.4639 47.888 16.2703 47.7589 16.1412 47.6943C15.1733 47.0487 14.399 46.0802 13.8828 44.9826C13.6247 44.4015 13.4311 43.7559 13.3666 43.0457C13.3666 42.852 13.3021 42.5937 13.3021 42.4001C13.3021 41.819 13.3666 41.3025 13.4957 40.7214C13.6247 40.1403 13.8828 39.5592 14.2054 39.0427C14.4636 38.6553 14.7217 38.268 15.0443 37.9451C15.4315 37.5578 15.8186 37.2349 16.2703 36.9121C16.3348 36.8476 16.3993 36.8476 16.4639 36.783C16.4639 36.783 16.4639 36.783 16.5284 36.783C16.5929 36.783 16.5929 36.7184 16.6575 36.7184C16.722 36.6539 16.7865 36.6539 16.851 36.5893C16.851 36.5893 16.9156 36.5893 16.9156 36.5247C16.9801 36.5247 17.0446 36.4602 17.1091 36.4602C17.2382 36.3956 17.3027 36.3956 17.4318 36.331C16.5929 30.9077 16.6575 25.4198 17.6899 19.9964C17.5608 19.9318 17.4318 19.8027 17.3027 19.7381C17.2382 19.7381 17.2382 19.6736 17.1737 19.6736C16.5929 19.2862 16.1412 18.7697 15.6896 18.1886C15.6896 18.1886 15.6896 18.1886 15.6896 18.124C15.5605 17.9949 15.496 17.8012 15.4315 17.6721C15.3669 17.543 15.3024 17.4138 15.2379 17.2847C15.2379 17.2201 15.1733 17.1556 15.1733 17.091C14.9798 16.6391 14.7862 16.1226 14.7217 15.606C14.7217 15.4123 14.6571 15.2832 14.6571 15.0895C14.6571 14.8958 14.5926 14.6376 14.5926 14.4439C14.5926 14.2502 14.5926 14.0565 14.5926 13.9274C14.5926 13.54 14.6571 13.2172 14.7862 12.8298C14.9152 12.3133 15.1088 11.7968 15.3669 11.3448C15.4315 11.2803 15.4314 11.2157 15.496 11.1511C15.7541 10.7637 16.0122 10.4409 16.3348 10.1181C16.722 9.73073 17.1091 9.40791 17.5608 9.14965C17.6254 9.08509 17.6899 9.08509 17.7544 9.02052C17.7544 9.02052 17.7544 9.02052 17.8189 9.02052C17.8835 9.02052 17.8835 8.95596 17.948 8.95596C18.0125 8.8914 18.077 8.8914 18.1416 8.82683C18.1416 8.82683 18.2061 8.82683 18.2061 8.76227C18.2706 8.76227 18.3351 8.6977 18.3997 8.6977C18.8514 8.50401 19.303 8.31032 19.8193 8.24576C20.2709 8.18119 20.6581 8.11663 21.1743 8.11663C21.3034 8.11663 21.4324 8.11663 21.5615 8.11663C21.6905 8.11663 21.8196 8.11663 21.9486 8.18119C22.0132 8.18119 22.0132 8.18119 22.0777 8.18119C22.7229 8.43945 23.3682 8.63314 24.0135 9.02052C24.078 9.02052 24.078 9.08509 24.1425 9.08509C24.1425 9.08509 24.2071 9.08509 24.2071 9.14965C24.2716 9.14965 24.2716 9.21421 24.3361 9.21421C24.3361 9.21421 24.4006 9.21422 24.4006 9.27878C24.4652 9.27878 24.4652 9.34334 24.5297 9.34334C24.5942 9.40791 24.6587 9.40791 24.6587 9.47247C24.7878 9.6016 24.9168 9.66616 25.0459 9.79529C25.6266 10.3118 26.1428 10.9574 26.53 11.6676C26.7881 12.1842 26.9817 12.7652 27.1107 13.3463C30.4016 14.1856 33.5634 15.3478 36.6607 16.8328C39.7579 18.3177 42.5971 20.1255 45.3072 22.1916L45.3717 22.127C45.4363 22.0624 45.5008 22.0624 45.5653 21.9979C45.5653 21.9979 45.6298 21.9979 45.6298 21.9333C45.6944 21.9333 45.7589 21.8687 45.8234 21.8687C46.6623 21.4814 47.5656 21.2877 48.469 21.2877C48.6626 21.2877 48.7916 21.2877 48.9852 21.2877C49.1143 21.2877 49.2433 21.2877 49.3724 21.3522C49.4369 21.3522 49.4369 21.3522 49.5014 21.3522C50.4693 21.4814 51.3082 21.8687 52.0825 22.3852C52.0825 22.3852 52.147 22.3852 52.147 22.4498C53.5666 23.3537 54.47 24.7741 54.8571 26.5173C54.9217 26.9047 54.9862 27.2921 54.9862 27.7441C54.9217 28.3897 54.7926 29.0999 54.5345 29.8101Z" />
</svg>
