<?xml version="1.0" encoding="UTF-8"?>
<svg version="1.1" xmlns="http://www.w3.org/2000/svg" width="4501" height="4501">
<path d="M0 0 C1.28478751 0.5595068 2.56961612 1.11891925 3.85449219 1.67822266 C11.5980555 5.05717441 19.30750533 8.50651674 27 12 C28.04849121 12.47276367 29.09698242 12.94552734 30.17724609 13.43261719 C47.89565791 21.4468815 65.31587441 30.05364438 82.71487045 38.73472214 C84.46794235 39.60901224 86.22171207 40.48190268 87.97549438 41.35476685 C102.3774624 48.53018462 116.62301901 55.92617793 130.69744873 63.72521973 C132.74183208 64.85706838 134.78964472 65.98216556 136.84033203 67.10253906 C152.15020738 75.47131004 167.20805247 84.19267464 182.11767578 93.25390625 C184.85161805 94.91011115 187.59335235 96.55220797 190.33984375 98.1875 C212.63344223 111.46151838 234.51088537 125.45901324 256 140 C256.78068848 140.52819336 257.56137695 141.05638672 258.36572266 141.60058594 C276.36312499 153.79312235 294.10618608 166.26089424 311.57080078 179.20458984 C314.01986576 181.01468269 316.47559138 182.81534754 318.93359375 184.61328125 C327.86304264 191.15003988 336.68332365 197.78742471 345.33935547 204.68212891 C347.02354155 206.01868234 348.71538011 207.34487521 350.41015625 208.66796875 C358.75484042 215.1840848 366.99213931 221.82544479 375.19140625 228.5234375 C376.7923548 229.83047541 378.39597976 231.13423356 380 232.4375 C387.0791077 238.19956441 394.05211893 244.08106892 401 250 C401.58749023 250.49967285 402.17498047 250.9993457 402.78027344 251.51416016 C409.52447619 257.25348035 416.21380277 263.03760284 422.7734375 268.98828125 C424.83104391 270.84734669 426.90846763 272.67928358 429 274.5 C437.26529646 281.70733851 445.346073 289.12096169 453.41601562 296.54541016 C455.02952135 298.02710978 456.64728796 299.5040489 458.265625 300.98046875 C464.42808459 306.61722088 470.43818952 312.3523565 476.26953125 318.33203125 C478.2985911 320.31464624 480.32285858 322.14950678 482.4765625 323.984375 C488.16988189 328.91992395 493.43898753 334.28982556 498.75463867 339.62426758 C500.55862085 341.43360933 502.36788665 343.23754319 504.17773438 345.04101562 C509.44991747 350.31047637 514.63997511 355.58002313 519.47631836 361.25805664 C522.16054963 364.32679405 525.08622318 367.15126284 528 370 C532.26884251 374.17355585 536.31728849 378.44507026 540.21875 382.96484375 C543.22114865 386.3952159 546.36534954 389.69084323 549.5 393 C556.53343138 400.42498323 563.24339656 408.09143313 569.875 415.875 C573.42401333 420.03206689 577.00674022 424.14575502 580.6875 428.1875 C584.48507249 432.37369301 588.07065944 436.70019014 591.625 441.09375 C594.16665273 444.20393032 596.7660466 447.25892214 599.375 450.3125 C603.62557663 455.30307952 607.71847083 460.39675926 611.74267578 465.57104492 C614.65658664 469.31143384 617.62475567 472.99958655 620.63647461 476.66162109 C627.37177172 484.85730264 633.77145642 493.27002629 640.1015625 501.78125 C643.40872936 506.22426223 646.76699352 510.62581488 650.13989258 515.01904297 C656.55557489 523.38000727 662.82889534 531.80983777 668.84106445 540.46582031 C670.93108345 543.47017257 673.03067481 546.46742081 675.13964844 549.45849609 C683.03814349 560.67196044 690.76431357 571.98873928 698.35986328 583.40942383 C700.12838385 586.06758607 701.90184958 588.7223998 703.67578125 591.37695312 C713.75303147 606.48634374 723.52347933 621.78039267 732.9375 637.3125 C733.51902832 638.27067627 734.10055664 639.22885254 734.69970703 640.21606445 C757.6067438 678.0421226 778.86922633 716.63290832 799 756 C799.55397461 757.07926758 800.10794922 758.15853516 800.67871094 759.27050781 C809.03908285 775.59457334 816.76204454 792.16609857 824.25990295 808.89849854 C826.24728544 813.33289389 828.25522107 817.75711427 830.27734375 822.17578125 C870.79667777 911.02751045 901.17297114 1004.35020536 940 1171 C940.1858667 1171.96411804 940.3717334 1172.92823608 940.56323242 1173.92156982 C951.84269117 1232.68152081 959.58588542 1292.10760635 964.25 1351.75 C964.36583435 1353.21051285 964.36583435 1353.21051285 964.48400879 1354.70053101 C965.0645039 1362.12936582 965.55036176 1369.56217171 966 1377 C966.04259823 1377.68880627 966.08519646 1378.37761253 966.12908554 1379.08729172 C967.96741826 1408.92257107 968.34577399 1438.71097954 968.31567383 1468.59790039 C968.3110656 1473.5475377 968.31790229 1478.49692783 968.33618164 1483.4465332 C968.50338054 1529.23614693 966.98034765 1574.95287447 962.75 1620.5625 C962.64773102 1621.69641174 962.54546204 1622.83032349 962.44009399 1623.99859619 C952.53933048 1733.27949884 931.60317076 1841.64022976 835.84912109 2119.07250977 C835.02474267 2120.94383457 834.2033908 2122.81645936 833.3828125 2124.68945312 C817.03965202 2161.90876512 799.72773393 2198.95526263 780.01953125 2234.5234375 C777.25790491 2239.5080138 774.57314507 2244.53137758 771.89379883 2249.56054688 C764.5922629 2263.24248639 756.93011375 2276.67383141 749 2290 C748.27505398 2291.22020823 747.5501195 2292.44042333 746.82519531 2293.66064453 C738.26023801 2308.06639327 729.6295687 2322.42330832 720.57958984 2336.53125 C718.79028612 2339.32776302 717.01418319 2342.1324582 715.23828125 2344.9375 C706.43096755 2358.81803241 697.36864968 2372.49235729 688 2386 C687.40445313 2386.85964355 686.80890625 2387.71928711 686.1953125 2388.60498047 C677.93840056 2400.50584072 669.5385893 2412.29971608 661 2424 C660.4328125 2424.77730469 659.865625 2425.55460937 659.28125 2426.35546875 C644.37283802 2446.7547021 628.96549339 2466.73777907 612.99609375 2486.31640625 C610.60003947 2489.25603408 608.2306009 2492.21530009 605.875 2495.1875 C602.38307167 2499.56895112 598.77242657 2503.84205052 595.140625 2508.10742188 C592.17227683 2511.59790331 589.25775569 2515.12556103 586.375 2518.6875 C582.75165505 2523.13903808 578.98036128 2527.42382455 575.1171875 2531.66796875 C573.21948831 2533.75823889 571.35266585 2535.86986115 569.5 2538 C566.10384136 2541.89929326 562.64098157 2545.736291 559.17578125 2549.57421875 C557.32556437 2551.63702788 555.50055191 2553.7171237 553.6875 2555.8125 C549.12652853 2561.04297187 544.39423472 2566.1164034 539.67089844 2571.19970703 C537.96743438 2573.0350875 536.26873896 2574.87480174 534.5703125 2576.71484375 C528.35582047 2583.42941226 522.07404816 2590.04616531 515.52563477 2596.4375 C512.79297937 2599.12315641 510.21024042 2601.8760681 507.7109375 2604.78125 C503.54574953 2609.59454695 499.07240477 2614.07408803 494.5625 2618.5625 C493.35110352 2619.77969727 493.35110352 2619.77969727 492.11523438 2621.02148438 C487.84333093 2625.28650321 483.4896371 2629.36902235 478.91381836 2633.30444336 C475.62511974 2636.21808182 472.57304324 2639.36226111 469.5 2642.5 C465.16205458 2646.92927059 460.74457173 2651.15608097 456.04882812 2655.20507812 C452.43796408 2658.36845663 448.9784887 2661.69258451 445.5 2665 C440.67694848 2669.58585226 435.81027752 2674.08990459 430.78173828 2678.45019531 C428.55134958 2680.39024841 426.36921987 2682.38050303 424.1875 2684.375 C419.81714316 2688.32371445 415.29696921 2692.0462721 410.71875 2695.75 C408.07852271 2697.93501569 405.5327028 2700.19171391 403 2702.5 C398.35267639 2706.72550081 393.54012176 2710.70187411 388.65771484 2714.65136719 C386.06946123 2716.7570392 383.50053886 2718.88599011 380.92895508 2721.01196289 C368.76725954 2731.06154324 356.49275018 2740.95031376 343.9453125 2750.515625 C341.69023594 2752.23636615 339.43898526 2753.9620627 337.1875 2755.6875 C320.7888393 2768.23827634 304.24184914 2780.55733165 287.31103516 2792.38232422 C284.85218892 2794.10346464 282.4006927 2795.83478387 279.94921875 2797.56640625 C258.15647181 2812.90393699 235.84434419 2827.54392172 213.21630859 2841.61962891 C210.87586042 2843.07731716 208.54143184 2844.54436789 206.20703125 2846.01171875 C166.9409171 2870.60412309 126.25339504 2892.94030437 85 2914 C84.35184326 2914.33126892 83.70368652 2914.66253784 83.03588867 2915.00384521 C62.95693401 2925.25929724 42.70349552 2935.00606208 22.10351562 2944.17041016 C18.71897119 2945.67671508 15.34196374 2947.19911155 11.96685791 2948.72642517 C-75.30469257 2988.17690623 -167.02172743 3018.3216713 -572.78326416 3084.90429688 C-574.85480874 3084.99373166 -576.92618215 3085.08645517 -578.99755859 3085.1796875 C-682.00363817 3089.6322853 -786.04148258 3083.25377255 -1360 2917 C-1360.94053223 2916.54141602 -1361.88106445 2916.08283203 -1362.85009766 2915.61035156 C-1374.12352053 2910.09778757 -1385.18136417 2904.25097562 -1396.171875 2898.1953125 C-1400.20874318 2895.97324634 -1404.26143476 2893.78419134 -1408.328125 2891.6171875 C-1422.02899359 2884.31512704 -1435.53296887 2876.75353045 -1448.89013672 2868.84033203 C-1452.14231822 2866.91577997 -1455.40081769 2865.00224686 -1458.66015625 2863.08984375 C-1492.25452097 2843.33679983 -1524.98419664 2822.21638644 -1557 2800 C-1558.15604736 2799.19973389 -1558.15604736 2799.19973389 -1559.33544922 2798.38330078 C-1571.71928896 2789.80301589 -1583.92294778 2781.0065261 -1596 2772 C-1597.07556152 2771.19900879 -1597.07556152 2771.19900879 -1598.17285156 2770.38183594 C-1607.17862722 2763.67010188 -1616.13171364 2756.8924784 -1625 2750 C-1625.54833496 2749.57396484 -1626.09666992 2749.14792969 -1626.66162109 2748.70898438 C-1634.96739392 2742.24441631 -1643.16040745 2735.64831163 -1651.31640625 2728.99609375 C-1654.25603408 2726.60003947 -1657.21530009 2724.2306009 -1660.1875 2721.875 C-1665.66607481 2717.50496624 -1670.99580429 2712.96149454 -1676.33105469 2708.41894531 C-1678.49320054 2706.58067853 -1680.66178317 2704.75010438 -1682.83056641 2702.91967773 C-1685.0002138 2701.08724536 -1687.16634141 2699.25068107 -1689.33203125 2697.41357422 C-1690.45608463 2696.46095872 -1691.58110583 2695.50948418 -1692.70703125 2694.55908203 C-1700.63130316 2687.8668287 -1708.32498246 2680.98131895 -1715.89453125 2673.890625 C-1718.24512684 2671.69233734 -1720.62657579 2669.54148485 -1723.0625 2667.4375 C-1728.18604139 2663.00574479 -1733.13366297 2658.3839035 -1738.09344482 2653.77111816 C-1739.30589818 2652.64479453 -1740.51966071 2651.5198773 -1741.73516846 2650.39685059 C-1754.8565652 2638.26613935 -1767.49375701 2625.66155537 -1780.11474609 2613.015625 C-1783.06170243 2610.06291209 -1786.01321105 2607.11479639 -1788.96601295 2604.1679306 C-1791.27396325 2601.86361033 -1793.5795067 2599.55689372 -1795.88434982 2597.24946594 C-1796.9719273 2596.16122906 -1798.06022668 2595.07371305 -1799.14931107 2593.98698425 C-1804.44739249 2588.6978756 -1809.68927166 2583.40180789 -1814.52987671 2577.6842041 C-1816.11229618 2575.87135114 -1817.78223626 2574.1844593 -1819.5 2572.5 C-1822.44882783 2569.59663868 -1825.1613211 2566.55745115 -1827.859375 2563.421875 C-1830.0847464 2560.90411904 -1832.37009999 2558.45316248 -1834.66992188 2556.00366211 C-1839.93006999 2550.40082107 -1844.95193465 2544.71388382 -1849.7578125 2538.7109375 C-1852.23907733 2535.71094135 -1854.84886537 2532.84868089 -1857.5 2530 C-1861.72959229 2525.44897911 -1865.72080879 2520.75701973 -1869.6171875 2515.91796875 C-1872.37542466 2512.54025865 -1875.21275315 2509.23795401 -1878.0625 2505.9375 C-1882.07963042 2501.27502733 -1886.01084801 2496.56622364 -1889.82421875 2491.734375 C-1891.51883718 2489.60469296 -1893.22955672 2487.49344798 -1894.95703125 2485.390625 C-1900.94695968 2478.09288349 -1906.78706466 2470.72124709 -1912.41137695 2463.13769531 C-1916.17514682 2458.07016 -1920.04012899 2453.09026139 -1923.9375 2448.125 C-1930.30508074 2439.98854973 -1936.38134774 2431.66782395 -1942.38232422 2423.25878906 C-1944.01758694 2420.97544304 -1945.66483697 2418.7012618 -1947.31640625 2416.4296875 C-1947.87062256 2415.6665625 -1948.42483887 2414.9034375 -1948.99584961 2414.1171875 C-1950.02016353 2412.70743192 -1951.04555874 2411.29846071 -1952.07250977 2409.890625 C-1961.67741709 2396.63850716 -1970.73976519 2382.99389764 -1979.8125 2369.375 C-1980.33602051 2368.58941711 -1980.85954102 2367.80383423 -1981.39892578 2366.9944458 C-1989.76534336 2354.43177475 -1998.02397965 2341.81529951 -2006 2329 C-2006.62777344 2327.99388672 -2007.25554687 2326.98777344 -2007.90234375 2325.95117188 C-2032.77688915 2286.02098057 -2055.62266609 2244.90094044 -2077 2203 C-2077.51880737 2201.98395691 -2077.51880737 2201.98395691 -2078.0480957 2200.9473877 C-2088.96866466 2179.54331878 -2099.37584578 2157.96773141 -2109.11254883 2135.99951172 C-2109.993236 2134.01523993 -2110.87784855 2132.03276486 -2111.76367188 2130.05078125 C-2125.56714361 2099.14359749 -2138.34330794 2067.78039236 -2150 2036 C-2150.27394592 2035.25357239 -2150.54789185 2034.50714478 -2150.83013916 2033.73809814 C-2188.38825909 1931.24827793 -2215.33634304 1825.72694997 -2245.25 1597.375 C-2245.32713226 1596.37465729 -2245.40426453 1595.37431458 -2245.48373413 1594.34365845 C-2248.29957717 1557.2912146 -2249.34537769 1520.1917048 -2249.26074219 1483.04101562 C-2249.24934897 1478.00724935 -2249.25615234 1472.9736948 -2249.26762009 1467.93993568 C-2249.3392433 1430.78197469 -2248.10881388 1393.67810608 -2245.25 1356.625 C-2245.12594788 1354.98747269 -2245.12594788 1354.98747269 -2244.99938965 1353.31686401 C-2236.4012395 1240.71293465 -2216.49166699 1128.74331482 -2168 969 C-2167.74130127 968.21187927 -2167.48260254 967.42375854 -2167.21606445 966.61175537 C-2149.7679008 913.58299582 -2128.98106776 861.80742114 -2105.90325928 810.99078369 C-2105.05350326 809.1179212 -2104.20753196 807.24334282 -2103.36181641 805.36865234 C-2095.29423224 787.53517806 -2086.60852076 770.0147031 -2077.875 752.5 C-2077.32773254 751.40010742 -2076.78046509 750.30021484 -2076.21661377 749.16699219 C-2069.18622283 735.05402987 -2061.91805731 721.10579625 -2054.27960205 707.31219482 C-2053.15147913 705.27371733 -2052.02939525 703.23215248 -2050.91162109 701.18798828 C-2041.96419581 684.83730187 -2032.66077666 668.71969494 -2023.05194092 652.74847412 C-2021.9727597 650.95472278 -2020.89481888 649.16022952 -2019.81689453 647.36572266 C-2017.96906964 644.29149306 -2016.11669767 641.22004253 -2014.26092529 638.15060425 C-2013.23879808 636.45985462 -2012.21823451 634.76815999 -2011.19775391 633.07641602 C-2001.88385659 617.7347234 -1991.9306197 602.80259834 -1981.97631836 587.87182617 C-1980.19718198 585.20202892 -1978.4217672 582.52978259 -1976.64648438 579.85742188 C-1960.14662179 555.06740454 -1942.85048911 530.91282061 -1924.73876953 507.27783203 C-1922.53323088 504.38852066 -1920.35786318 501.47831887 -1918.1875 498.5625 C-1910.65821795 488.49973552 -1902.79616975 478.70667531 -1894.84570312 468.97509766 C-1891.25346279 464.57022507 -1887.73551734 460.1145581 -1884.25 455.625 C-1880.41782568 450.70056675 -1876.40613677 446.02072877 -1872.1796875 441.42578125 C-1869.86407108 438.84872426 -1867.67794934 436.19417609 -1865.5 433.5 C-1861.83985922 428.97902471 -1858.0321816 424.63310608 -1854.1171875 420.33203125 C-1852.21948831 418.24176111 -1850.35266585 416.13013885 -1848.5 414 C-1845.10142278 410.09792986 -1841.63626007 406.25807019 -1838.16796875 402.41796875 C-1836.35952443 400.4009831 -1834.5801266 398.36508404 -1832.8125 396.3125 C-1828.87828924 391.79544321 -1824.77537612 387.43714138 -1820.67700195 383.06958008 C-1820.11972412 382.47556396 -1819.56244629 381.88154785 -1818.98828125 381.26953125 C-1818.40705505 380.65010651 -1817.82582886 380.03068176 -1817.22698975 379.39248657 C-1815.15861733 377.17040484 -1813.11029285 374.93093096 -1811.06307602 372.68938637 C-1804.11226972 365.10066559 -1796.92358325 357.77651236 -1789.640625 350.5078125 C-1788.39884175 349.2653529 -1787.15720673 348.02274513 -1785.91571045 346.77999878 C-1783.33914059 344.20197022 -1780.76081094 341.625719 -1778.18115234 339.05078125 C-1774.8942814 335.76963674 -1771.61196307 332.48398024 -1768.33093643 329.19699287 C-1765.77783561 326.64026232 -1763.22233804 324.085938 -1760.66613007 321.5323143 C-1759.45508454 320.32192982 -1758.24476459 319.11081888 -1757.03522491 317.8989296 C-1745.65165939 306.49807969 -1745.65165939 306.49807969 -1739.64080811 301.42672729 C-1737.84031455 299.86114915 -1736.1702267 298.20315787 -1734.5 296.5 C-1731.57869212 293.53284199 -1728.52008327 290.79941029 -1725.3671875 288.08203125 C-1722.36277451 285.439536 -1719.43265928 282.72159827 -1716.5 280 C-1711.73377807 275.58488097 -1706.93152568 271.23077602 -1702 267 C-1701.5148291 266.58314941 -1701.0296582 266.16629883 -1700.52978516 265.73681641 C-1697.59679316 263.21719324 -1694.66093619 260.70095428 -1691.72265625 258.1875 C-1689.26836295 256.08768 -1686.8179562 253.98347363 -1684.37109375 251.875 C-1678.31456308 246.65967714 -1672.22742768 241.49633226 -1666.01953125 236.4609375 C-1663.71442231 234.5822588 -1661.42195089 232.69166404 -1659.13671875 230.7890625 C-1651.29340893 224.26895165 -1643.3645423 217.90808754 -1635.23144531 211.75268555 C-1630.63041575 208.26591821 -1626.109407 204.69761031 -1621.625 201.0625 C-1608.64027553 190.57930829 -1594.98600606 180.94369075 -1581.44140625 171.203125 C-1578.52209464 169.10249684 -1575.61393943 166.98780822 -1572.71484375 164.859375 C-1561.35845199 156.54386406 -1549.70787032 148.71763209 -1537.96337891 140.96240234 C-1535.16013023 139.10604109 -1532.36532149 137.23784135 -1529.57421875 135.36328125 C-1500.41272494 115.78248741 -1470.45334255 97.49634128 -1440 80 C-1439.05882324 79.45923828 -1438.11764648 78.91847656 -1437.14794922 78.36132812 C-1413.115268 64.59058112 -1388.66009536 51.60816906 -1364 39 C-1363.41238892 38.69900391 -1362.82477783 38.39800781 -1362.21936035 38.08789062 C-1344.02853614 28.77308113 -1325.63317792 20.02088705 -1306.97615051 11.6796875 C-1302.64530344 9.74284841 -1298.32696175 7.78081627 -1294.015625 5.80078125 C-1204.95382654 -34.93964273 -1110.64303317 -65.88924851 0 0 Z M-1382.6796875 379.8984375 C-1384.69397731 381.72282794 -1386.74148614 383.49093802 -1388.8125 385.25 C-1397.47541703 392.80364107 -1405.67851984 401.14264925 -1413 410 C-1413.67168213 410.80099121 -1413.67168213 410.80099121 -1414.35693359 411.61816406 C-1458.35464849 464.16825954 -1484.57833613 526.87144494 -1492 595 C-1492.103125 595.94657471 -1492.20625 596.89314941 -1492.3125 597.8684082 C-1493.17813312 606.87949441 -1493.24335352 615.89242613 -1493.25 624.9375 C-1493.25067474 625.76914673 -1493.25134949 626.60079346 -1493.25204468 627.4576416 C-1493.14697598 709.67046157 -1461.65834899 790.24693978 -1405.4921875 850.3203125 C-1403.20962532 852.7746035 -1401.00537641 855.27831987 -1398.8125 857.8125 C-1395.83973973 861.16884225 -1392.72195805 864.12429408 -1389.296875 867.01171875 C-1387.02365935 868.97951937 -1384.84702332 871.03159253 -1382.66967773 873.10424805 C-1357.67176112 897.81633654 -1357.67176112 897.81633654 -1328 912 C-1328.18997559 912.98726074 -1328.37995117 913.97452148 -1328.57568359 914.99169922 C-1344.9394149 1000.53294725 -1355.67416441 1087.35604164 -1367.84570312 1259.57196045 C-1367.94810246 1261.84698372 -1368.05225306 1264.12192888 -1368.15820312 1266.39678955 C-1371.5866477 1340.09115272 -1371.54234772 1414.31139494 -1368 1488 C-1367.96874023 1488.65757545 -1367.93748047 1489.31515091 -1367.90527344 1489.99265289 C-1364.43581935 1562.96809665 -1358.41755776 1635.85230641 -1345.0625 1735.25 C-1344.96336178 1735.95315716 -1344.86422356 1736.65631432 -1344.76208115 1737.38077927 C-1344.11113934 1741.98939852 -1343.45099675 1746.59663032 -1342.78515625 1751.203125 C-1342.61885712 1752.3619368 -1342.45255798 1753.5207486 -1342.28121948 1754.7146759 C-1342.12662262 1755.76950668 -1341.97202576 1756.82433746 -1341.81274414 1757.91113281 C-1341.61244347 1759.28534393 -1341.61244347 1759.28534393 -1341.40809631 1760.68731689 C-1341.03218462 1763.14771067 -1341.03218462 1763.14771067 -1340 1766 C-1340.58555664 1766.1542041 -1341.17111328 1766.3084082 -1341.77441406 1766.46728516 C-1348.7949934 1768.43090074 -1355.20139788 1771.19380825 -1361.75 1774.375 C-1363.37603149 1775.16185181 -1363.37603149 1775.16185181 -1365.03491211 1775.96459961 C-1392.03552313 1789.2456198 -1416.31549935 1806.3481866 -1439 1826 C-1440.19109375 1827.0209375 -1440.19109375 1827.0209375 -1441.40625 1828.0625 C-1453.89786942 1839.01405675 -1465.83803615 1850.84922326 -1476 1864 C-1476.93439934 1865.14836325 -1477.87213529 1866.29401651 -1478.8125 1867.4375 C-1533.95625862 1934.74558437 -1560.49650775 2023.99082741 -1552.05053711 2110.56005859 C-1544.25265197 2179.95936037 -1517.17453245 2245.38074627 -1471 2298 C-1470.39027344 2298.70898438 -1469.78054688 2299.41796875 -1469.15234375 2300.1484375 C-1467.45347792 2302.11639082 -1465.73237846 2304.06147212 -1464 2306 C-1463.14535156 2306.9590625 -1462.29070312 2307.918125 -1461.41015625 2308.90625 C-1456.90111471 2313.923518 -1452.37529195 2318.781574 -1447.19140625 2323.1171875 C-1444.95112734 2325.04199041 -1442.81625642 2327.05996574 -1440.67797852 2329.09667969 C-1420.77491475 2347.92593451 -1397.24365011 2363.37139994 -1373 2376 C-1372.36288086 2376.33902344 -1371.72576172 2376.67804687 -1371.06933594 2377.02734375 C-1340.04125219 2393.51151434 -1306.15424848 2404.43056011 -1271.5625 2410.3125 C-1270.70229248 2410.45969482 -1269.84208496 2410.60688965 -1268.95581055 2410.75854492 C-1251.66619927 2413.49168207 -1234.35706358 2414.38242975 -1216.875 2414.3125 C-1215.89521179 2414.31034485 -1214.91542358 2414.3081897 -1213.90594482 2414.30596924 C-1198.086851 2414.25040279 -1182.63512082 2413.59497308 -1167 2411 C-1165.78280273 2410.80132324 -1164.56560547 2410.60264648 -1163.31152344 2410.39794922 C-1073.72245179 2395.35374662 -995.03500241 2345.47816644 -942 2272 C-934.75157966 2261.80176464 -928.37685343 2251.12086716 -922.24902344 2240.21923828 C-921.4767961 2238.84716116 -920.69976339 2237.47776125 -919.91503906 2236.11279297 C-899.65252267 2200.85601445 -888.33714844 2160.08080181 -883 2120 C-882.88285645 2119.19304687 -882.76571289 2118.38609375 -882.64501953 2117.5546875 C-871.61266364 2040.18066105 -893.49989893 1957.7844461 -936 1893 C-932.00510193 1888.73094226 -927.64486832 1885.42566314 -922.875 1882.0625 C-921.25846122 1880.90976987 -919.64259768 1879.75609232 -918.02734375 1878.6015625 C-917.19702637 1878.00891602 -916.36670898 1877.41626953 -915.51123047 1876.80566406 C-911.45657658 1873.89022364 -907.44903322 1870.91183072 -903.4375 1867.9375 C-895.45019062 1862.03249476 -887.3783013 1856.26051698 -879.23925781 1850.56689453 C-876.84247637 1848.88977468 -874.44846749 1847.20874447 -872.0546875 1845.52734375 C-870.34907701 1844.33056001 -868.64334988 1843.13394249 -866.9375 1841.9375 C-866.183479 1841.40833984 -865.42945801 1840.87917969 -864.65258789 1840.33398438 C-850.81557854 1830.64676322 -836.84148333 1821.17322843 -822.7824707 1811.81152344 C-820.06801998 1810.00367635 -817.35522473 1808.19336519 -814.64257812 1806.3828125 C-803.81878887 1799.16543835 -792.94774969 1792.02792673 -782 1785 C-780.99525635 1784.35450195 -779.9905127 1783.70900391 -778.95532227 1783.04394531 C-748.73189181 1763.67593052 -718.10808379 1744.91411698 -687 1727 C-685.90220215 1726.36739258 -684.8044043 1725.73478516 -683.67333984 1725.08300781 C-649.74428082 1705.55611496 -615.42465591 1686.78933492 -580.60952759 1668.89022827 C-576.09625675 1666.56854026 -571.59179952 1664.23025957 -567.08984375 1661.88671875 C-552.97294522 1654.54425857 -538.80493359 1647.36811163 -524.39941406 1640.60400391 C-520.3919205 1638.71307941 -516.39522735 1636.80013147 -512.3984375 1634.88671875 C-491.53869335 1624.91334088 -470.55745927 1615.26913851 -449.36218262 1606.0300293 C-446.95585731 1604.98075159 -444.55066079 1603.92891491 -442.14550781 1602.87695312 C-401.26812285 1585.02164647 -359.84259044 1568.45640976 -318 1553 C-317.2959906 1552.73932739 -316.5919812 1552.47865479 -315.86663818 1552.21008301 C-228.0162933 1519.69383345 -138.28961129 1492.9359168 -47.24560547 1470.95581055 C-36.79277449 1468.43170023 -26.37128761 1465.84301983 -16 1463 C-15.7006958 1463.76554199 -15.4013916 1464.53108398 -15.09301758 1465.31982422 C-4.36369111 1491.62908176 17.65605446 1517.44356203 38 1537 C40.66953735 1539.65171073 43.31775872 1542.32243565 45.9453125 1545.015625 C52.62343992 1551.83095987 59.45078811 1558.14012224 67 1564 C68.49080078 1565.18142578 68.49080078 1565.18142578 70.01171875 1566.38671875 C112.27036704 1599.6547246 162.16807994 1622.10574046 215 1632 C216.03979004 1632.19674316 217.07958008 1632.39348633 218.15087891 1632.59619141 C225.07993386 1633.88393029 232.02214798 1635.01128558 239 1636 C239.82467773 1636.11859375 240.64935547 1636.2371875 241.49902344 1636.359375 C323.68287489 1647.59819229 411.86765371 1621.13539854 477.62866211 1571.88378906 C480.12441283 1569.96849093 482.56731332 1567.99460395 485 1566 C485.52029785 1565.57444824 486.0405957 1565.14889648 486.57666016 1564.71044922 C502.02382252 1552.02055213 517.34906438 1538.45099965 529.80078125 1522.7578125 C532.07536417 1519.9054936 534.43869993 1517.14506241 536.8125 1514.375 C576.76265211 1466.33602266 600.87063757 1404.67161581 608 1343 C608.08991211 1342.23357178 608.17982422 1341.46714355 608.27246094 1340.67749023 C614.83232054 1280.5474761 602.78961297 1220.43122771 577 1166 C576.48058838 1164.89881836 576.48058838 1164.89881836 575.95068359 1163.77539062 C573.73778217 1159.12732659 571.41235216 1154.54747386 569 1150 C568.61875977 1149.28005859 568.23751953 1148.56011719 567.84472656 1147.81835938 C550.38413748 1115.09206591 526.51283542 1083.91686977 498 1060 C497.45875488 1059.54496094 496.91750977 1059.08992188 496.35986328 1058.62109375 C486.28184685 1050.18544071 475.8849974 1042.36345421 465 1035 C464.31856934 1034.53883789 463.63713867 1034.07767578 462.93505859 1033.60253906 C414.87718117 1001.31955966 361.601432 981.92402271 304 976 C302.72898437 975.86722656 301.45796875 975.73445313 300.1484375 975.59765625 C244.35568623 970.91619551 187.78471248 981.91881652 137 1005 C136.20916016 1005.35626465 135.41832031 1005.7125293 134.60351562 1006.07958984 C126.72034229 1009.64414086 119.10454391 1013.19612336 111.98046875 1018.1640625 C111.00013672 1018.57785156 111.00013672 1018.57785156 110 1019 C106.94965218 1017.75739893 104.44972996 1015.95720769 101.83203125 1013.98046875 C101.03015381 1013.37710693 100.22827637 1012.77374512 99.40209961 1012.15209961 C98.54753174 1011.50378174 97.69296387 1010.85546387 96.8125 1010.1875 C95.92119385 1009.51533447 95.0298877 1008.84316895 94.11157227 1008.15063477 C88.53388568 1003.93846668 82.98179783 999.69345516 77.4375 995.4375 C57.69632103 980.28756319 37.45428612 965.79110465 17.10009766 951.47949219 C15.00509917 950.0035923 12.91406724 948.52224386 10.82421875 947.0390625 C-5.73697336 935.2915421 -22.54379212 923.91397711 -39.44384766 912.66064453 C-42.13169079 910.87054394 -44.81786797 909.07796356 -47.50390625 907.28515625 C-61.25496413 898.11584629 -75.07242993 889.05147745 -89.0625 880.25 C-89.8366626 879.76233154 -90.6108252 879.27466309 -91.40844727 878.7722168 C-93.93807634 877.18006052 -96.46903798 875.59003632 -99 874 C-99.90073242 873.43297363 -100.80146484 872.86594727 -101.72949219 872.28173828 C-124.48008764 857.96529894 -147.38654586 843.96537887 -170.71484375 830.609375 C-175.7896749 827.70322842 -180.83738898 824.7537865 -185.87744141 821.7878418 C-215.31374328 804.48403666 -245.4837822 788.39347527 -275.7902832 772.67651367 C-278.21779012 771.40856737 -280.64012888 770.13250063 -283.05932617 768.84887695 C-296.09215811 761.94055139 -309.2422126 755.27954288 -322.4375 748.6875 C-323.53805725 748.13719116 -324.6386145 747.58688232 -325.77252197 747.01989746 C-341.36472947 739.22987481 -357.00399857 731.61721122 -372.88085938 724.42285156 C-376.16483747 722.92480645 -379.43510506 721.39971784 -382.703125 719.8671875 C-428.75666507 698.27489342 -475.6645725 678.5960608 -523 660 C-523.84820313 659.66677734 -524.69640625 659.33355469 -525.5703125 658.99023438 C-615.26899312 623.79644627 -706.87327115 593.65931057 -813 564.4375 C-814.81398285 563.94209213 -814.81398285 563.94209213 -816.66461182 563.43667603 C-820.04622129 562.51516581 -823.4290049 561.59815361 -826.8125 560.68359375 C-827.82093964 560.40951691 -828.82937927 560.13544006 -829.86837769 559.85305786 C-830.78450836 559.60691742 -831.70063904 559.36077698 -832.64453125 559.10717773 C-833.84106323 558.78438087 -833.84106323 558.78438087 -835.06176758 558.45506287 C-836.99268667 557.92381091 -836.99268667 557.92381091 -839 558 C-839.10183594 556.75605469 -839.20367188 555.51210937 -839.30859375 554.23046875 C-839.96081585 548.41718484 -841.45843648 542.92672232 -843.0625 537.3125 C-843.527771 535.67535034 -843.527771 535.67535034 -844.00244141 534.00512695 C-856.26309851 491.72942636 -876.8815467 451.91984422 -905 418 C-906.19496094 416.54400391 -906.19496094 416.54400391 -907.4140625 415.05859375 C-921.70484306 397.79896331 -937.28702771 381.76733414 -955 368 C-956.04969971 367.18208984 -956.04969971 367.18208984 -957.12060547 366.34765625 C-1008.32811266 326.67010433 -1069.98366813 300.57898136 -1135 296 C-1135.9290918 295.93296875 -1136.85818359 295.8659375 -1137.81542969 295.796875 C-1227.09400294 289.85449316 -1316.39177148 319.42889655 -1382.6796875 379.8984375 Z " fill="#732043" transform="translate(2774,820)"/>
<path d="M0 0 C6.41798467 0.59461569 12.47743371 1.67346413 18.7265625 3.23046875 C19.65032181 3.45681 20.57408112 3.68315125 21.52583313 3.91635132 C24.56113755 4.66466942 27.59338821 5.42436554 30.625 6.1875 C31.68220245 6.45287567 32.73940491 6.71825134 33.8286438 6.9916687 C126.40329763 30.32513898 216.30938083 64.53953537 304 102 C305.23556641 102.52753876 305.23556641 102.52753876 306.49609375 103.06573486 C327.12570755 111.87951401 347.67227959 120.87070607 368.10198975 130.13922119 C370.07876618 131.03572176 372.05619627 131.93076955 374.03369141 132.82568359 C405.1276391 146.90580725 435.96048823 161.50824777 466.625 176.5 C467.55173523 176.95304504 468.47847046 177.40609009 469.43328857 177.87286377 C479.22735549 182.66441461 489.00615411 187.48596906 498.76171875 192.35546875 C499.55627472 192.75161377 500.35083069 193.14775879 501.16946411 193.5559082 C508.13219804 197.03989699 515.02266132 200.65648711 521.8984375 204.30859375 C526.62279526 206.80890083 531.36876846 209.26625847 536.11669922 211.72143555 C546.97498673 217.33970761 557.75371117 223.08223588 568.46875 228.96875 C572.29285389 231.06954527 576.12664001 233.15106856 579.96875 235.21875 C592.15256583 241.7758795 604.23676081 248.47445163 616.21728516 255.39599609 C619.17560351 257.10122083 622.14011619 258.795321 625.10546875 260.48828125 C639.4898676 268.7178277 653.71248808 277.18411206 667.84063721 285.84350586 C671.68066824 288.19663537 675.53100535 290.53198261 679.38671875 292.859375 C695.28581911 302.49590263 710.76282348 312.70363802 726.18045044 323.08665466 C730.11625965 325.73718227 734.06048311 328.37451133 738.012146 331.00134277 C743.86725162 334.89374379 749.70293154 338.80621539 755.4375 342.875 C756.13649414 343.36983887 756.83548828 343.86467773 757.55566406 344.37451172 C764.5173405 349.32771168 771.36123278 354.43302865 778.16259766 359.60351562 C779.86980566 360.90104815 781.58106985 362.19304282 783.29296875 363.484375 C795.78781026 372.98355885 807.93934608 382.89236871 819.41796875 393.6015625 C821.6996991 395.72105181 824.01708346 397.77874148 826.375 399.8125 C827.58387488 400.87438381 828.79223925 401.93684918 830 403 C830.61230469 403.52207031 831.22460938 404.04414062 831.85546875 404.58203125 C833.5625 406.125 833.5625 406.125 836 409 C835.83841664 413.95522299 832.90464682 418.145441 830.5625 422.375 C806.44754379 467.35130722 796.13154878 516.3605649 793 567 C788.19689248 569.16582607 783.19411014 570.24219595 778.0859375 571.43359375 C776.04775409 571.91635458 774.00958751 572.3991865 771.97143555 572.88208008 C770.36091812 573.26150253 770.36091812 573.26150253 768.71786499 573.64859009 C666.39836494 597.79580155 565.33204482 628.02468136 282.41357422 742.41455078 C278.9690978 744.01435266 275.5179649 745.59913846 272.06640625 747.18359375 C252.65351504 756.13888373 233.51017332 765.63645889 214.38422394 775.18495178 C212.28047793 776.23479051 210.17605138 777.28325364 208.07147217 778.3314209 C192.27080482 786.20472675 176.61098769 794.26091329 161.16271973 802.81176758 C156.56977297 805.33520516 151.91091176 807.72997005 147.25 810.125 C138.23367181 814.79860831 129.32333754 819.62775569 120.47460938 824.61035156 C117.71133428 826.16210392 114.94192877 827.70256968 112.171875 829.2421875 C97.67172928 837.31174468 83.29356383 845.57035565 69 854 C68.39395935 854.35705017 67.7879187 854.71410034 67.16351318 855.08197021 C48.31574671 866.18655175 29.57846818 877.44884839 11 889 C9.95312012 889.64984863 8.90624023 890.29969727 7.82763672 890.96923828 C-4.09411426 898.37381343 -15.97040398 905.83992213 -27.72119141 913.51318359 C-30.28444208 915.1855852 -32.85113525 916.85263414 -35.41796875 918.51953125 C-70.14064249 941.08794647 -104.52305471 964.21878918 -138.02441406 988.56982422 C-140.98221711 990.71105138 -143.96034621 992.8233144 -146.9375 994.9375 C-154.87532628 1000.58756849 -162.70143624 1006.3887646 -170.53564453 1012.18115234 C-172.9670154 1013.97565532 -175.40263417 1015.76421827 -177.83984375 1017.55078125 C-186.39851224 1023.828995 -194.9048934 1030.16398131 -203.30712891 1036.65063477 C-204.58560904 1037.63603026 -205.86911272 1038.61495182 -207.15820312 1039.58642578 C-208.40519162 1040.54348614 -209.62782901 1041.53298318 -210.82617188 1042.55029297 C-212.609375 1043.99609375 -212.609375 1043.99609375 -216 1046 C-218.88671875 1045.56640625 -218.88671875 1045.56640625 -222 1044 C-223.35929912 1043.38107926 -224.7201097 1042.76547233 -226.08203125 1042.15234375 C-226.83564941 1041.79897949 -227.58926758 1041.44561523 -228.36572266 1041.08154297 C-258.93998754 1026.78589288 -290.95314674 1018.97204322 -324 1013 C-338.87607322 915.87844344 -347.29105973 818.15226365 -351 720 C-351.03867188 718.9767865 -351.07734375 717.953573 -351.1171875 716.89935303 C-351.60912707 703.60132697 -351.87970489 690.30639371 -352 677 C-352.01095703 675.79007385 -352.02191406 674.58014771 -352.03320312 673.33355713 C-352.64785613 600.45988994 -350.64264097 527.70751271 -319.5625 247.625 C-319.30206909 246.05534485 -319.30206909 246.05534485 -319.03637695 244.45397949 C-318.55113166 241.54401472 -318.06029222 238.63507193 -317.56640625 235.7265625 C-317.421996 234.86497528 -317.27758575 234.00338806 -317.12879944 233.11569214 C-316.11711543 227.23423085 -316.11711543 227.23423085 -315 225 C-313.57627075 224.94054199 -313.57627075 224.94054199 -312.1237793 224.87988281 C-235.85977939 221.59781088 -161.82300914 199.47049727 -103 149 C-101.53433594 147.80890625 -101.53433594 147.80890625 -100.0390625 146.59375 C-91.98886355 139.98967994 -84.56200685 132.77628852 -77.1875 125.4375 C-76.69963013 124.95480652 -76.21176025 124.47211304 -75.70910645 123.97479248 C-69.01105736 117.33283765 -62.83056994 110.4192464 -57 103 C-56.42032471 102.269021 -55.84064941 101.53804199 -55.2434082 100.78491211 C-43.05719865 85.30752302 -32.62057783 69.17908736 -23 52 C-22.60425781 51.30181152 -22.20851563 50.60362305 -21.80078125 49.88427734 C-12.85480714 34.02654593 -6.09140419 17.1329904 0 0 Z " fill="#732043" transform="translate(1925,1552)"/>
</svg>
