<svg width="69" height="58" viewBox="0 0 69 58" xmlns="http://www.w3.org/2000/svg">
    <path d="M38.5258 0.5C41.2111 0.5 43.7864 1.50791 45.6852 3.30201C47.584 5.09611 48.6508 7.52943 48.6508 10.0667V36.8533C48.6513 39.0587 47.8453 41.1966 46.3692 42.905C44.8932 44.6135 42.8377 45.7876 40.5508 46.2287V33.0267C40.5508 29.4745 39.0573 26.0679 36.399 23.5562C33.7407 21.0444 30.1352 19.6333 26.3758 19.6333H10.1758C8.00093 19.6333 5.94353 20.0925 4.10078 20.9229V10.0667C4.10078 7.52943 5.16752 5.09611 7.06632 3.30201C8.96513 1.50791 11.5405 0.5 14.2258 0.5H38.5258ZM52.7008 31.4271V15.5388L63.9193 6.68772C64.3625 6.33891 64.9017 6.11655 65.4737 6.04665C66.0458 5.97676 66.6271 6.06221 67.1496 6.29302C67.6722 6.52383 68.1144 6.89045 68.4245 7.35C68.7346 7.80955 68.8998 8.34304 68.9008 8.88805V38.2309C68.8998 38.7785 68.7331 39.3144 68.4203 39.7754C68.1075 40.2363 67.6616 40.6031 67.1353 40.8324C66.609 41.0618 66.0243 41.144 65.4502 41.0696C64.876 40.9951 64.3364 40.767 63.895 40.4121L52.7008 31.4271ZM0.0507812 33.0267C0.0507813 30.4894 1.11752 28.0561 3.01632 26.262C4.91513 24.4679 7.49046 23.46 10.1758 23.46H26.3758C29.0611 23.46 31.6364 24.4679 33.5352 26.262C35.434 28.0561 36.5008 30.4894 36.5008 33.0267V48.3333C36.5008 50.8706 35.434 53.3039 33.5352 55.098C31.6364 56.8921 29.0611 57.9 26.3758 57.9H10.1758C7.49046 57.9 4.91513 56.8921 3.01632 55.098C1.11752 53.3039 0.0507812 50.8706 0.0507812 48.3333V33.0267ZM16.3318 33.1568C16.0692 32.9864 15.764 32.8837 15.4465 32.8588C15.129 32.834 14.8101 32.8879 14.5214 33.0152C14.2843 33.1127 14.0697 33.2531 13.8896 33.4285C13.5123 33.7938 13.3015 34.2842 13.3024 34.7946V46.5616C13.2997 46.8153 13.3502 47.0669 13.451 47.3021C13.5518 47.5372 13.7009 47.7511 13.8896 47.9315C14.0758 48.1055 14.2922 48.2479 14.5295 48.3525C14.9404 48.5304 15.4067 48.5576 15.8377 48.429C16.0244 48.371 16.2016 48.2885 16.3642 48.1841L25.663 42.1877C25.9458 42.0114 26.1737 41.7671 26.3231 41.4798C26.477 41.1903 26.5561 40.8705 26.554 40.5466C26.5519 40.2227 26.4686 39.9038 26.311 39.6162C26.1515 39.3325 25.9171 39.0926 25.6306 38.9197L16.3318 33.1568Z" />
</svg>
