<svg width="76" height="79" viewBox="0 0 76 79" xmlns="http://www.w3.org/2000/svg">
    <path fill-rule="evenodd" clip-rule="evenodd" d="M42.2345 4.11462H49.6001C53.3843 4.11462 56.3958 4.11462 58.8088 4.35162C61.282 4.5985 63.3751 5.10871 65.2371 6.297C67.1555 7.5195 68.768 9.19683 69.9428 11.1917C71.0828 13.1272 71.5768 15.303 71.8111 17.8738C72.0423 20.382 72.0423 23.5124 72.0423 27.446V30.1287C72.0423 32.9266 72.0423 35.155 71.922 36.9622C71.8017 38.8088 71.5483 40.3954 70.9561 41.8799C70.2404 43.6773 69.191 45.3106 67.868 46.6864C66.5449 48.0622 64.9742 49.1536 63.2453 49.8984C62.042 50.4152 60.7658 50.6851 59.3155 50.8332C59.2965 51.2941 59.2775 51.7286 59.2522 52.1433C59.1223 54.1052 58.8531 55.7773 58.2293 57.3376C56.7027 61.1674 53.7754 64.2103 50.091 65.7972C48.2005 66.6135 46.1168 66.8505 43.4948 66.9394C42.0825 66.9855 41.1832 67.0184 40.496 67.104C39.85 67.1862 39.6062 67.2949 39.4731 67.3772C39.3275 67.466 39.1248 67.6306 38.7765 68.1342C38.3965 68.6774 37.9658 69.4279 37.2881 70.6227L36.4648 72.0645C34.321 75.8302 29.0136 75.8302 26.8698 72.0645L26.0465 70.6227C25.3688 69.4279 24.9382 68.6774 24.5582 68.1342C24.2098 67.6306 24.0071 67.466 23.8615 67.3772C23.7285 67.2949 23.4846 67.1862 22.8386 67.104C21.8415 67.0078 20.8411 66.9529 19.8398 66.9394C17.2178 66.8505 15.1342 66.6102 13.2437 65.7972C9.55925 64.2103 6.63192 61.1674 5.10532 57.3376C4.48148 55.7773 4.21232 54.1052 4.08565 52.1433C3.95898 50.221 3.95898 47.851 3.95898 44.8589V42.0083C3.95898 37.8081 3.95898 34.477 4.20282 31.8107C4.45298 29.0786 4.97548 26.7876 6.17565 24.7501C7.41544 22.6453 9.11694 20.8755 11.141 19.5855C13.1012 18.3346 15.3052 17.7948 17.9335 17.5347C18.5985 17.4689 19.311 17.4195 20.071 17.3833C20.3243 15.0133 20.831 12.9922 21.8918 11.1884C23.0679 9.19436 24.6815 7.51815 26.6006 6.297C28.4626 5.112 30.5558 4.5985 33.029 4.35492C35.442 4.11462 38.4535 4.11462 42.2345 4.11462ZM24.8653 17.2846L27.7407 17.2813H35.5876C39.6283 17.2813 42.833 17.2813 45.398 17.5347C48.0263 17.7948 50.2303 18.3379 52.1905 19.5855C54.2142 20.8746 55.9156 22.6432 57.1558 24.7468C58.3591 26.7843 58.8785 29.0753 59.1287 31.8074C59.3725 34.4737 59.3725 37.8048 59.3725 42.005V45.853C60.0758 45.7756 60.7659 45.6007 61.4245 45.3329C62.5774 44.8366 63.625 44.1091 64.5074 43.1918C65.3898 42.2746 66.0897 41.1857 66.5671 39.9872C66.8775 39.2038 67.0738 38.2196 67.1815 36.6231C67.2892 35.0036 67.2892 32.9463 67.2892 30.0365V27.5677C67.2892 23.4795 67.2892 20.5894 67.0802 18.3379C66.8775 16.1292 66.4975 14.7994 65.8895 13.7691C65.1064 12.441 64.0321 11.3244 62.7545 10.5103C61.7601 9.87504 60.4808 9.48004 58.3528 9.26937C56.1931 9.05542 53.4096 9.05212 49.4766 9.05212H42.3516C38.4186 9.05212 35.6351 9.05212 33.4723 9.26937C31.3475 9.48004 30.0681 9.87504 29.0738 10.507C27.7962 11.3211 26.7219 12.4377 25.9388 13.7658C25.4321 14.6315 25.0838 15.6881 24.8653 17.2846ZM18.38 22.4558C16.1 22.6796 14.7067 23.1075 13.6205 23.7988C12.2356 24.6809 11.0713 25.8912 10.2227 27.3308C9.55765 28.4598 9.14598 29.9081 8.92748 32.2781C8.70582 34.681 8.70582 37.7785 8.70582 42.1367V44.77C8.70582 47.8708 8.70582 50.0729 8.81982 51.8076C8.93382 53.5193 9.14598 54.589 9.48798 55.4482C10.0056 56.7465 10.7642 57.9261 11.7205 58.9196C12.6767 59.9131 13.812 60.7009 15.0613 61.2382C16.1158 61.6925 17.4806 61.9196 19.9886 62.0019L20.0868 62.0052C21.3725 62.048 22.4872 62.0875 23.4118 62.2027C24.3935 62.3277 25.3593 62.5648 26.2745 63.1243C27.177 63.6839 27.8293 64.418 28.3962 65.231C28.925 65.9881 29.4665 66.9394 30.084 68.019L30.9548 69.5497C31.0275 69.6766 31.1317 69.7809 31.2565 69.8516C31.3813 69.9222 31.5221 69.9567 31.6641 69.9512C31.8062 69.9567 31.947 69.9222 32.0718 69.8516C32.1966 69.7809 32.3008 69.6766 32.3735 69.5497L33.2443 68.019C33.8587 66.9394 34.4033 65.9848 34.929 65.231C35.4865 64.3821 36.2093 63.6644 37.0506 63.1243C37.969 62.5648 38.9348 62.3277 39.9196 62.2027C41.0238 62.0888 42.132 62.0229 43.2415 62.0052H43.3365C45.8476 61.9196 47.2093 61.6925 48.2701 61.2382C49.5192 60.7002 50.654 59.9117 51.6097 58.9176C52.5655 57.9236 53.3235 56.7435 53.8403 55.4449C54.1823 54.589 54.3945 53.516 54.5053 51.8076C54.6225 50.0729 54.6225 47.8708 54.6225 44.77V42.1367C54.6225 37.7785 54.6225 34.6843 54.4008 32.2781C54.1823 29.9081 53.7706 28.4598 53.1057 27.3308C52.257 25.8912 51.0927 24.6809 49.7078 23.7988C48.6216 23.1075 47.2283 22.6796 44.9483 22.4525C42.6367 22.2221 39.6568 22.2221 35.4642 22.2221H27.8673C23.6747 22.2221 20.698 22.2221 18.3832 22.4525" />
    <path d="M23.7493 42.7917C23.7493 43.6647 23.4157 44.5019 22.8219 45.1192C22.228 45.7365 21.4225 46.0833 20.5827 46.0833C19.7428 46.0833 18.9374 45.7365 18.3435 45.1192C17.7496 44.5019 17.416 43.6647 17.416 42.7917C17.416 41.9187 17.7496 41.0814 18.3435 40.4641C18.9374 39.8468 19.7428 39.5 20.5827 39.5C21.4225 39.5 22.228 39.8468 22.8219 40.4641C23.4157 41.0814 23.7493 41.9187 23.7493 42.7917ZM34.8327 42.7917C34.8327 43.6647 34.4991 44.5019 33.9052 45.1192C33.3113 45.7365 32.5059 46.0833 31.666 46.0833C30.8262 46.0833 30.0207 45.7365 29.4268 45.1192C28.833 44.5019 28.4993 43.6647 28.4993 42.7917C28.4993 41.9187 28.833 41.0814 29.4268 40.4641C30.0207 39.8468 30.8262 39.5 31.666 39.5C32.5059 39.5 33.3113 39.8468 33.9052 40.4641C34.4991 41.0814 34.8327 41.9187 34.8327 42.7917ZM45.916 42.7917C45.916 43.6647 45.5824 44.5019 44.9885 45.1192C44.3947 45.7365 43.5892 46.0833 42.7493 46.0833C41.9095 46.0833 41.104 45.7365 40.5102 45.1192C39.9163 44.5019 39.5827 43.6647 39.5827 42.7917C39.5827 41.9187 39.9163 41.0814 40.5102 40.4641C41.104 39.8468 41.9095 39.5 42.7493 39.5C43.5892 39.5 44.3947 39.8468 44.9885 40.4641C45.5824 41.0814 45.916 41.9187 45.916 42.7917Z" />
</svg>
