<svg width="79" height="57" viewBox="0 0 79 57" xmlns="http://www.w3.org/2000/svg">
    <path d="M8.8875 7.82812C8.8875 6.00062 9.61578 4.24796 10.9121 2.95572C12.2085 1.66347 13.9667 0.9375 15.8 0.9375C17.6333 0.9375 19.3915 1.66347 20.6879 2.95572C21.9842 4.24796 22.7125 6.00062 22.7125 7.82812C22.7125 9.65563 21.9842 11.4083 20.6879 12.7005C19.3915 13.9928 17.6333 14.7188 15.8 14.7188C13.9667 14.7188 12.2085 13.9928 10.9121 12.7005C9.61578 11.4083 8.8875 9.65563 8.8875 7.82812ZM7.9 27.2326C6.66563 28.6107 5.925 30.4441 5.925 32.4375C5.925 34.4309 6.66563 36.2643 7.9 37.6424V27.2326ZM25.7244 21.1664C22.0583 24.4025 19.75 29.1398 19.75 34.4062C19.75 38.6268 21.2313 42.5027 23.7 45.542V48.1875C23.7 50.3654 21.9348 52.125 19.75 52.125H11.85C9.66516 52.125 7.9 50.3654 7.9 48.1875V44.8898C3.23406 42.675 0 37.9377 0 32.4375C0 24.8209 6.18422 18.6562 13.825 18.6562H17.775C20.7375 18.6562 23.4778 19.5791 25.7244 21.1541V21.1664ZM55.3 48.1875V45.542C57.7687 42.5027 59.25 38.6268 59.25 34.4062C59.25 29.1398 56.9417 24.4025 53.2756 21.1541C55.5222 19.5791 58.2625 18.6562 61.225 18.6562H65.175C72.8158 18.6562 79 24.8209 79 32.4375C79 37.9377 75.7659 42.675 71.1 44.8898V48.1875C71.1 50.3654 69.3348 52.125 67.15 52.125H59.25C57.0652 52.125 55.3 50.3654 55.3 48.1875ZM56.2875 7.82812C56.2875 6.00062 57.0158 4.24796 58.3121 2.95572C59.6085 1.66347 61.3667 0.9375 63.2 0.9375C65.0333 0.9375 66.7915 1.66347 68.0879 2.95572C69.3842 4.24796 70.1125 6.00062 70.1125 7.82812C70.1125 9.65563 69.3842 11.4083 68.0879 12.7005C66.7915 13.9928 65.0333 14.7188 63.2 14.7188C61.3667 14.7188 59.6085 13.9928 58.3121 12.7005C57.0158 11.4083 56.2875 9.65563 56.2875 7.82812ZM71.1 27.2326V37.6547C72.3344 36.2643 73.075 34.4432 73.075 32.4498C73.075 30.4564 72.3344 28.623 71.1 27.2449V27.2326ZM39.5 0.9375C41.5952 0.9375 43.6046 1.76719 45.0861 3.24403C46.5677 4.72088 47.4 6.72392 47.4 8.8125C47.4 10.9011 46.5677 12.9041 45.0861 14.381C43.6046 15.8578 41.5952 16.6875 39.5 16.6875C37.4048 16.6875 35.3954 15.8578 33.9139 14.381C32.4323 12.9041 31.6 10.9011 31.6 8.8125C31.6 6.72392 32.4323 4.72088 33.9139 3.24403C35.3954 1.76719 37.4048 0.9375 39.5 0.9375ZM29.625 34.4062C29.625 36.3996 30.3656 38.2207 31.6 39.6111V29.2014C30.3656 30.5918 29.625 32.4129 29.625 34.4062ZM47.4 29.2014V39.6234C48.6344 38.233 49.375 36.4119 49.375 34.4186C49.375 32.4252 48.6344 30.5918 47.4 29.2137V29.2014ZM55.3 34.4062C55.3 39.9064 52.0659 44.6438 47.4 46.8586V52.125C47.4 54.3029 45.6348 56.0625 43.45 56.0625H35.55C33.3652 56.0625 31.6 54.3029 31.6 52.125V46.8586C26.9341 44.6438 23.7 39.9064 23.7 34.4062C23.7 26.7896 29.8842 20.625 37.525 20.625H41.475C49.1158 20.625 55.3 26.7896 55.3 34.4062Z" />
</svg>
