<svg width="70" height="71" viewBox="0 0 70 71" xmlns="http://www.w3.org/2000/svg">
    <path d="M63.552 4.37828L65.2728 6.12369C67.644 8.53178 67.2853 12.8007 64.4649 15.6584L28.9778 51.6524L17.4803 55.9184C16.0365 56.4568 14.6307 55.7586 14.3449 54.3652C14.2483 53.8598 14.2938 53.337 14.4761 52.8565L18.7636 41.0942L54.1515 5.19773C56.972 2.33998 61.1807 1.97019 63.552 4.37828ZM27.429 7.95786C27.8121 7.95786 28.1913 8.03438 28.5452 8.18305C28.8991 8.33172 29.2206 8.54963 29.4914 8.82434C29.7623 9.09904 29.9771 9.42517 30.1237 9.78409C30.2703 10.143 30.3457 10.5277 30.3457 10.9162C30.3457 11.3047 30.2703 11.6894 30.1237 12.0483C29.9771 12.4072 29.7623 12.7333 29.4914 13.0081C29.2206 13.2828 28.8991 13.5007 28.5452 13.6493C28.1913 13.798 27.8121 13.8745 27.429 13.8745H15.7624C14.2153 13.8745 12.7315 14.4979 11.6376 15.6075C10.5436 16.7171 9.92904 18.222 9.92904 19.7912V55.2912C9.92904 56.8604 10.5436 58.3653 11.6376 59.4749C12.7315 60.5845 14.2153 61.2079 15.7624 61.2079H50.7624C52.3095 61.2079 53.7932 60.5845 54.8872 59.4749C55.9811 58.3653 56.5957 56.8604 56.5957 55.2912V43.4579C56.5957 42.6733 56.903 41.9208 57.45 41.366C57.997 40.8112 58.7388 40.4995 59.5124 40.4995C60.2859 40.4995 61.0278 40.8112 61.5748 41.366C62.1217 41.9208 62.429 42.6733 62.429 43.4579V55.2912C62.429 58.4296 61.1999 61.4394 59.0119 63.6586C56.824 65.8778 53.8566 67.1245 50.7624 67.1245H15.7624C12.6682 67.1245 9.70072 65.8778 7.51279 63.6586C5.32487 61.4394 4.0957 58.4296 4.0957 55.2912V19.7912C4.0957 16.6528 5.32487 13.6429 7.51279 11.4238C9.70072 9.20458 12.6682 7.95786 15.7624 7.95786H27.429Z" />
</svg>
